<svg width="53" height="56" viewBox="0 0 53 56" fill="none" xmlns="http://www.w3.org/2000/svg">
<path d="M20.125 31.4446C20.5325 31.4351 20.8543 31.3401 21.0904 31.1596C21.3265 30.979 21.4446 30.7314 21.4446 30.4167C21.4446 30.0833 21.3242 29.8218 21.0833 29.6321C20.8425 29.4421 20.4999 29.3518 20.0554 29.3612C18.8982 29.389 17.7037 29.0394 16.4721 28.3125C15.2407 27.5856 14.4583 26.2915 14.125 24.4304C14.0694 24.1621 13.9375 23.9446 13.7292 23.7779C13.5208 23.6112 13.2917 23.5279 13.0417 23.5279C12.7083 23.5279 12.4444 23.6551 12.25 23.9096C12.0556 24.1643 11.9907 24.4399 12.0554 24.7362C12.4907 27.1343 13.5185 28.8611 15.1387 29.9167C16.7593 30.9722 18.4214 31.4815 20.125 31.4446ZM20 36.6667C16.1944 36.6667 13.0208 35.3611 10.4792 32.75C7.9375 30.1389 6.66666 26.8889 6.66666 23C6.66666 20.2222 7.77083 17.2014 9.97916 13.9375C12.1875 10.6736 15.5278 7.13888 20 3.33333C24.4722 7.13888 27.8125 10.6736 30.0208 13.9375C32.2292 17.2014 33.3333 20.2222 33.3333 23C33.3333 26.8889 32.0625 30.1389 29.5208 32.75C26.9792 35.3611 23.8056 36.6667 20 36.6667ZM20 33.8887C23.0369 33.8887 25.5554 32.854 27.5554 30.7846C29.5554 28.7151 30.5554 26.1203 30.5554 23C30.5554 20.8611 29.6596 18.4351 27.8679 15.7221C26.0762 13.0093 23.4536 10.1112 20 7.02791C16.5464 10.1112 13.9237 13.0093 12.1321 15.7221C10.3404 18.4351 9.44458 20.8611 9.44458 23C9.44458 26.1203 10.4446 28.7151 12.4446 30.7846C14.4446 32.854 16.9631 33.8887 20 33.8887Z" fill="white"/>
<path d="M33.125 39.4446C33.5325 39.4351 33.8543 39.3401 34.0904 39.1596C34.3265 38.979 34.4446 38.7314 34.4446 38.4167C34.4446 38.0833 34.3242 37.8218 34.0833 37.6321C33.8425 37.4421 33.4999 37.3518 33.0554 37.3612C31.8982 37.389 30.7037 37.0394 29.4721 36.3125C28.2407 35.5856 27.4583 34.2915 27.125 32.4304C27.0694 32.1621 26.9375 31.9446 26.7292 31.7779C26.5208 31.6112 26.2917 31.5279 26.0417 31.5279C25.7083 31.5279 25.4444 31.6551 25.25 31.9096C25.0556 32.1643 24.9907 32.4399 25.0554 32.7362C25.4907 35.1343 26.5185 36.8611 28.1387 37.9167C29.7593 38.9722 31.4214 39.4815 33.125 39.4446ZM33 44.6667C29.1944 44.6667 26.0208 43.3611 23.4792 40.75C20.9375 38.1389 19.6667 34.8889 19.6667 31C19.6667 28.2222 20.7708 25.2014 22.9792 21.9375C25.1875 18.6736 28.5278 15.1389 33 11.3333C37.4722 15.1389 40.8125 18.6736 43.0208 21.9375C45.2292 25.2014 46.3333 28.2222 46.3333 31C46.3333 34.8889 45.0625 38.1389 42.5208 40.75C39.9792 43.3611 36.8056 44.6667 33 44.6667ZM33 41.8887C36.0369 41.8887 38.5554 40.854 40.5554 38.7846C42.5554 36.7151 43.5554 34.1203 43.5554 31C43.5554 28.8611 42.6596 26.4351 40.8679 23.7221C39.0762 21.0093 36.4536 18.1112 33 15.0279C29.5464 18.1112 26.9237 21.0093 25.1321 23.7221C23.3404 26.4351 22.4446 28.8611 22.4446 31C22.4446 34.1203 23.4446 36.7151 25.4446 38.7846C27.4446 40.854 29.9631 41.8887 33 41.8887Z" fill="white"/>
<path d="M23.4583 50.1113C23.8658 50.1018 24.1876 50.0068 24.4238 49.8263C24.6599 49.6457 24.7779 49.3981 24.7779 49.0833C24.7779 48.75 24.6575 48.4885 24.4167 48.2988C24.1758 48.1088 23.8332 48.0185 23.3887 48.0279C22.2315 48.0557 21.0371 47.7061 19.8054 46.9792C18.574 46.2522 17.7917 44.9582 17.4583 43.0971C17.4028 42.8288 17.2708 42.6113 17.0625 42.4446C16.8542 42.2779 16.625 42.1946 16.375 42.1946C16.0417 42.1946 15.7778 42.3218 15.5833 42.5763C15.3889 42.831 15.324 43.1065 15.3887 43.4029C15.824 45.801 16.8518 47.5278 18.4721 48.5833C20.0926 49.6389 21.7547 50.1482 23.4583 50.1113ZM23.3333 55.3333C19.5278 55.3333 16.3542 54.0278 13.8125 51.4167C11.2708 48.8056 10 45.5556 10 41.6667C10 38.8889 11.1042 35.8681 13.3125 32.6042C15.5208 29.3403 18.8611 25.8056 23.3333 22C27.8056 25.8056 31.1458 29.3403 33.3542 32.6042C35.5625 35.8681 36.6667 38.8889 36.6667 41.6667C36.6667 45.5556 35.3958 48.8056 32.8542 51.4167C30.3125 54.0278 27.1389 55.3333 23.3333 55.3333ZM23.3333 52.5554C26.3703 52.5554 28.8888 51.5207 30.8888 49.4513C32.8888 47.3818 33.8888 44.7869 33.8888 41.6667C33.8888 39.5278 32.9929 37.1018 31.2013 34.3888C29.4096 31.676 26.7869 28.7779 23.3333 25.6946C19.8797 28.7779 17.2571 31.676 15.4654 34.3888C13.6738 37.1018 12.7779 39.5278 12.7779 41.6667C12.7779 44.7869 13.7779 47.3818 15.7779 49.4513C17.7779 51.5207 20.2964 52.5554 23.3333 52.5554Z" fill="white"/>
</svg>
